HIERARCHY
ROOT Hips
{
	OFFSET 53.852200 14.014091 58.628304
	CHANNELS 6 Xposition Yposition Zposition Xrotation Yrotation Zrotation
	JOINT spine
	{
		OFFSET 0.000000 -0.429886 7.475594
		CHANNELS 3 Xrotation Yrotation Zrotation
		JOINT spine1
		{
			OFFSET 0.000000 -0.000002 9.923012
			CHANNELS 3 Xrotation Yrotation Zrotation
			JOINT spine2
			{
				OFFSET 0.000000 -0.000002 9.508041
				CHANNELS 3 Xrotation Yrotation Zrotation
				JOINT Neck
				{
					OFFSET 0.000000 -1.163844 24.411102
					CHANNELS 3 Xrotation Yrotation Zrotation
					JOINT Head
					{
						OFFSET 0.000000 -0.000001 7.375229
						CHANNELS 3 Xrotation Yrotation Zrotation
						End Site
						{
							OFFSET 0.000000 5.887406 17.852196
						}
					}
				}
				JOINT RightShoulder
				{
					OFFSET -4.003559 0.557467 10.267899
					CHANNELS 3 Xrotation Yrotation Zrotation
					JOINT RightArm
					{
						OFFSET 0.000000 -0.000003 13.467300
						CHANNELS 3 Xrotation Yrotation Zrotation
						JOINT RightArmRoll
						{
							OFFSET 0.000000 -0.000001 6.798576
							CHANNELS 3 Xrotation Yrotation Zrotation
							JOINT RightForeArm
							{
								OFFSET 0.000000 -0.000003 19.801804
								CHANNELS 3 Xrotation Yrotation Zrotation
								JOINT RightForeArmRoll
								{
									OFFSET 0.000000 -0.000002 7.629044
									CHANNELS 3 Xrotation Yrotation Zrotation
									JOINT RightHand
									{
										OFFSET 0.000000 -0.000002 15.309799
										CHANNELS 3 Xrotation Yrotation Zrotation
										End Site
										{
											OFFSET 0.000000 0.000000 0.100006
										}
									}
								}
							}
						}
					}
				}
				JOINT LeftShoulder
				{
					OFFSET 4.003559 0.557467 10.267899
					CHANNELS 3 Xrotation Yrotation Zrotation
					JOINT LeftArm
					{
						OFFSET 0.000000 -0.000003 13.467300
						CHANNELS 3 Xrotation Yrotation Zrotation
						JOINT LeftArmRoll
						{
							OFFSET 0.000000 -0.000001 6.798576
							CHANNELS 3 Xrotation Yrotation Zrotation
							JOINT LeftForeArm
							{
								OFFSET 0.000000 -0.000003 19.801804
								CHANNELS 3 Xrotation Yrotation Zrotation
								JOINT LeftForeArmRoll
								{
									OFFSET 0.000000 -0.000002 7.629044
									CHANNELS 3 Xrotation Yrotation Zrotation
									JOINT LeftHand
									{
										OFFSET 0.000000 -0.000002 15.309799
										CHANNELS 3 Xrotation Yrotation Zrotation
										End Site
										{
											OFFSET 0.000000 0.000000 0.100006
										}
									}
								}
							}
						}
					}
				}
			}
		}
	}
	JOINT RightUpLeg
	{
		OFFSET -6.626091 1.019270 -1.215050
		CHANNELS 3 Xrotation Yrotation Zrotation
		JOINT RightUpLegRoll
		{
			OFFSET 0.000000 -0.000003 17.951698
			CHANNELS 3 Xrotation Yrotation Zrotation
			JOINT RightLeg
			{
				OFFSET 0.000000 0.000004 -22.230396
				CHANNELS 3 Xrotation Yrotation Zrotation
				JOINT RightLegRoll
				{
					OFFSET 0.000000 -0.000004 22.303196
					CHANNELS 3 Xrotation Yrotation Zrotation
					JOINT RightFoot
					{
						OFFSET 0.000000 -0.000003 18.563599
						CHANNELS 3 Xrotation Yrotation Zrotation
						JOINT RightToeBase
						{
							OFFSET 0.000000 -0.000003 15.518303
							CHANNELS 3 Xrotation Yrotation Zrotation
							End Site
							{
								OFFSET 0.006577 0.866261 7.515388
							}
						}
					}
				}
			}
		}
	}
	JOINT LeftUpLeg
	{
		OFFSET 6.626091 1.019270 -1.215050
		CHANNELS 3 Xrotation Yrotation Zrotation
		JOINT LeftUpLegRoll
		{
			OFFSET 0.000000 -0.000003 17.951797
			CHANNELS 3 Xrotation Yrotation Zrotation
			JOINT LeftLeg
			{
				OFFSET 0.000000 -0.000004 22.230301
				CHANNELS 3 Xrotation Yrotation Zrotation
				JOINT LeftLegRoll
				{
					OFFSET 0.000000 -0.000004 22.509300
					CHANNELS 3 Xrotation Yrotation Zrotation
					JOINT LeftFoot
					{
						OFFSET 0.000000 -0.000003 18.357506
						CHANNELS 3 Xrotation Yrotation Zrotation
						JOINT LeftToeBase
						{
							OFFSET 0.000000 -0.000002 15.518295
							CHANNELS 3 Xrotation Yrotation Zrotation
							End Site
							{
								OFFSET -0.029476 0.866261 7.515381
							}
						}
					}
				}
			}
		}
	}
}
MOTION
Frames: 9
Frame Time: 0.041667
54.731598 12.437891 59.225800 -0.066047 3.649138 0.628280 3.061776 0.079806 -0.738393 10.127216 0.107160 -1.491581 11.772114 0.089276 -1.492756 -13.467264 0.680518 -1.268357 5.887696 -6.449966 -0.473535 -10.444064 -66.610320 -12.747482 -69.139218 -124.367978 -76.595695 0.000000 -0.000000 -0.000005 17.055689 -17.781535 2.882806 -0.000002 -0.000007 -3.005980 -5.000180 -7.999609 0.000051 -20.423422 64.181225 24.088774 -71.780377 114.938150 77.402265 0.000003 0.000002 0.000003 20.173488 19.131174 -3.002670 0.000002 0.000005 3.008410 -5.000164 7.999906 0.000017 -80.914150 177.327352 10.663576 -179.999991 0.000005 -1.964999 93.977823 4.594462 -2.303629 -0.000002 0.000001 2.467050 65.911810 7.339796 1.260078 27.978955 -7.428147 -1.510362 -81.992009 179.680666 3.811780 -0.000006 -0.000004 -1.483010 -84.301576 -7.587836 -1.814009 -0.000003 -0.000003 -2.170460 65.494179 -7.446365 -1.037232 25.857244 7.351322 -0.571319 
54.712597 12.476291 59.215504 -0.214793 3.629355 0.629394 3.064117 0.076974 -0.739240 10.131915 0.100642 -1.493925 11.776715 0.082733 -1.495029 -13.287994 0.792483 -1.249177 5.835361 -6.505527 -0.478494 -10.443909 -66.543275 -12.743758 -68.985341 -124.465076 -76.324516 0.000000 -0.000001 -0.000004 16.919447 -17.747227 2.846334 -0.000003 -0.000008 -3.005981 -5.000180 -7.999608 0.000052 -20.391448 64.244882 24.051198 -71.782399 114.919545 77.294170 0.000003 -0.000001 0.000004 20.126334 19.075479 -2.978624 0.000002 0.000005 3.008410 -5.000163 7.999909 0.000016 -80.796220 177.309143 10.643575 -179.999991 0.000005 -1.965000 93.984277 4.599605 -2.297072 -0.000002 0.000001 2.464250 65.881143 7.328336 1.290376 27.951127 -7.426234 -1.481175 -81.874980 179.638360 3.795974 -0.000004 -0.000004 -1.485040 -84.269665 -7.579919 -1.804885 -0.000003 -0.000003 -2.161790 65.390633 -7.451245 -1.035359 25.874809 7.351153 -0.596313 
54.701897 12.501493 59.216404 -0.362505 3.609199 0.628855 3.066113 0.074533 -0.740266 10.135815 0.095111 -1.496393 11.780711 0.077176 -1.497436 -13.109644 0.900282 -1.229288 5.788327 -6.557619 -0.481572 -10.443486 -66.481387 -12.739980 -68.839011 -124.560288 -76.062756 -0.000000 -0.000001 -0.000003 16.784684 -17.713225 2.810479 -0.000002 -0.000007 -3.005981 -5.000180 -7.999609 0.000051 -20.363084 64.304455 24.017838 -71.776887 114.901882 77.177067 0.000003 0.000001 0.000002 20.076134 19.018853 -2.953926 0.000001 0.000005 3.008411 -5.000163 7.999909 0.000016 -80.679376 177.288311 10.622323 -179.999991 0.000005 -1.965997 93.990001 4.605520 -2.289520 -0.000001 0.000001 2.461840 65.853781 7.318073 1.317403 27.914782 -7.423990 -1.451047 -81.757699 179.594264 3.776089 -0.000004 -0.000004 -1.487020 -84.237597 -7.571001 -1.795107 -0.000003 -0.000003 -2.153249 65.291124 -7.455832 -1.033754 25.891164 7.350997 -0.619704 
54.680798 12.536091 59.198704 -0.509096 3.588660 0.626415 3.067763 0.072543 -0.741487 10.139114 0.090723 -1.498974 11.784010 0.072761 -1.499960 -12.932714 1.003147 -1.208469 5.747499 -6.605694 -0.482435 -10.442702 -66.425400 -12.736119 -68.701581 -124.653302 -75.812518 0.000000 -0.000001 -0.000003 16.652126 -17.679559 2.775380 -0.000005 -0.000007 -3.005981 -5.000178 -7.999610 0.000052 -20.339130 64.359431 23.989612 -71.763595 114.885394 77.050667 0.000002 0.000000 0.000004 20.022662 18.961123 -2.928509 0.000001 0.000006 3.008412 -5.000165 7.999908 0.000016 -80.563994 177.264323 10.601182 -179.999991 0.000005 -1.968005 93.994830 4.612198 -2.281928 -0.000001 0.000001 2.459860 65.830046 7.309099 1.340763 27.868410 -7.421433 -1.420517 -81.640322 179.547696 3.753898 -0.000005 -0.000004 -1.488930 -84.205133 -7.561142 -1.784456 -0.000003 -0.000004 -2.144850 65.196164 -7.460144 -1.032390 25.906209 7.350852 -0.641194 
54.672897 12.562389 59.195808 -0.654353 3.567768 0.622374 3.068892 0.070998 -0.742934 10.141313 0.087466 -1.501685 11.786212 0.069478 -1.502627 -12.755188 1.100463 -1.186893 5.711458 -6.648779 -0.481183 -10.442338 -66.376373 -12.733089 -68.574416 -124.743884 -75.575251 -0.000000 -0.000001 -0.000003 16.520368 -17.646943 2.741075 -0.000002 -0.000007 -3.005981 -5.000180 -7.999609 0.000050 -20.317600 64.408704 23.964269 -71.737975 114.869425 76.910539 0.000002 -0.000000 0.000004 19.966129 18.902173 -2.902430 0.000003 0.000006 3.008410 -5.000162 7.999910 0.000016 -80.449882 177.237713 10.578611 -179.999991 0.000005 -1.969999 93.998928 4.619503 -2.274357 -0.000001 0.000001 2.458399 65.810771 7.301814 1.359484 27.811608 -7.418438 -1.386978 -81.523164 179.499120 3.728896 -0.000005 -0.000004 -1.490810 -84.172062 -7.550309 -1.773114 -0.000003 -0.000003 -2.136451 65.103997 -7.464242 -1.031397 25.920348 7.350721 -0.661468 
54.659798 12.593289 59.187603 -0.798202 3.546567 0.617239 3.069373 0.069823 -0.744607 10.142310 0.085153 -1.504573 11.787209 0.067138 -1.505490 -12.574870 1.192686 -1.164864 5.678053 -6.686801 -0.478285 -10.442848 -66.333848 -12.731406 -68.456186 -124.832553 -75.349042 0.000000 -0.000001 -0.000003 16.387630 -17.615531 2.707379 -0.000004 -0.000007 -3.005981 -5.000180 -7.999608 0.000051 -20.296233 64.452131 23.939186 -71.696987 114.852909 76.753889 0.000002 0.000000 0.000003 19.906883 18.842322 -2.875901 0.000002 0.000005 3.008411 -5.000162 7.999908 0.000016 -80.336787 177.208998 10.555128 -179.999991 0.000005 -1.971994 94.002370 4.627517 -2.264776 -0.000001 0.000002 2.457480 65.796278 7.296496 1.373207 27.745263 -7.414989 -1.347980 -81.406586 179.449246 3.700861 -0.000004 -0.000004 -1.492650 -84.138286 -7.538656 -1.761080 -0.000003 -0.000003 -2.127940 65.012637 -7.468183 -1.030623 25.934280 7.350596 -0.681393 
54.634495 12.620991 59.166706 -0.940792 3.525036 0.611070 3.069274 0.068974 -0.746482 10.142111 0.083675 -1.507618 11.786906 0.065632 -1.508516 -12.392141 1.280641 -1.142382 5.647169 -6.720538 -0.473902 -10.444004 -66.296951 -12.730762 -68.345311 -124.919447 -75.131835 0.000000 0.000001 -0.000004 16.253979 -17.584926 2.674136 -0.000003 -0.000008 -3.005980 -5.000178 -7.999609 0.000051 -20.275254 64.490475 23.914635 -71.642968 114.836189 76.583045 0.000003 0.000000 0.000003 19.844959 18.781668 -2.848906 0.000002 0.000005 3.008410 -5.000163 7.999907 0.000018 -80.224690 177.178263 10.531234 -179.999991 0.000005 -1.974002 94.005089 4.636017 -2.254188 -0.000002 0.000001 2.457070 65.786135 7.292916 1.382311 27.670512 -7.411180 -1.304173 -81.290500 179.398060 3.670950 -0.000004 -0.000004 -1.494480 -84.103924 -7.526272 -1.748352 -0.000003 -0.000003 -2.119380 64.922526 -7.471995 -1.030047 25.947907 7.350486 -0.700897 
54.621197 12.651389 59.159500 -1.082274 3.503187 0.603926 3.068655 0.068411 -0.748533 10.140810 0.082922 -1.510812 11.785714 0.064852 -1.511702 -12.207515 1.365150 -1.119468 5.618719 -6.750783 -0.468209 -10.445535 -66.264597 -12.730775 -68.240461 -125.004988 -74.921711 -0.000000 0.000000 -0.000004 16.119383 -17.554851 2.641229 -0.000003 -0.000007 -3.005981 -5.000181 -7.999609 0.000051 -20.255016 64.524749 23.891013 -71.578047 114.819114 76.400242 0.000002 -0.000001 0.000003 19.780667 18.720169 -2.821522 0.000000 0.000005 3.008410 -5.000161 7.999909 0.000017 -80.113358 177.145560 10.507373 -179.999991 0.000005 -1.976994 94.007391 4.645020 -2.244598 -0.000001 0.000001 2.457090 65.779790 7.290883 1.387496 27.588469 -7.407123 -1.256228 -81.174811 179.345864 3.638307 -0.000003 -0.000004 -1.496280 -84.069213 -7.513198 -1.735044 -0.000003 -0.000003 -2.110790 64.833843 -7.475628 -1.029737 25.961238 7.350376 -0.719936 
54.612595 12.674993 59.178905 -1.222786 3.481029 0.595865 3.067603 0.068091 -0.750734 10.138713 0.082785 -1.514144 11.783608 0.064685 -1.515034 -12.021388 1.447059 -1.096148 5.592600 -6.778334 -0.461359 -10.447126 -66.235759 -12.731063 -68.140030 -125.089287 -74.716600 0.000001 0.000001 -0.000004 15.983804 -17.524816 2.608428 -0.000002 -0.000007 -3.005982 -5.000180 -7.999609 0.000049 -20.235704 64.555656 23.868521 -71.504424 114.801820 76.207679 0.000002 0.000001 0.000003 19.714142 18.657992 -2.793794 0.000003 0.000005 3.008411 -5.000164 7.999909 0.000015 -80.002566 177.111327 10.481963 -179.999991 0.000005 -1.979997 94.009166 4.654588 -2.233013 -0.000002 0.000001 2.457489 65.776778 7.290219 1.389052 27.500355 -7.402913 -1.204775 -81.059087 179.292657 3.604047 -0.000005 -0.000004 -1.498060 -84.034290 -7.499520 -1.721360 -0.000003 -0.000003 -2.102220 64.746799 -7.479083 -1.029581 25.974164 7.350271 -0.738423 
